<svg xmlns="http://www.w3.org/2000/svg" viewBox="0 0 32 32" fill="none">
  <rect x="2" y="2" width="28" height="28" rx="2" fill="#F7DF1E"/>
  <path d="M9 22.4c.6 1 1.4 1.6 2.6 1.6 1.1 0 1.8-.5 1.8-1.3 0-.9-.7-1.2-1.9-1.7l-.7-.3c-1.9-.8-3.1-1.8-3.1-3.9 0-2 1.5-3.4 3.8-3.4 1.7 0 2.8.6 3.7 2.1l-2 1.3c-.4-.8-.9-1.1-1.6-1.1-.7 0-1.2.5-1.2 1.1 0 .7.5 1 1.5 1.5l.7.3c2.2 1 3.4 1.9 3.4 4.1 0 2.3-1.8 3.6-4.3 3.6-2.4 0-3.9-1.1-4.7-2.6L9 22.4zm10.5-.2c.4.8 1 1.3 1.9 1.3.8 0 1.4-.3 1.4-1.5V14h2.7v8.1c0 2.5-1.5 3.6-3.6 3.6-1.9 0-3.1-.9-3.6-2.1l1.2-1.4z" fill="#323330"/>
</svg>
