<svg xmlns="http://www.w3.org/2000/svg" viewBox="0 0 32 32" fill="none">
  <path d="M8 4h10l8 8v16a2 2 0 01-2 2H8a2 2 0 01-2-2V6a2 2 0 012-2z" fill="#217346"/>
  <path d="M18 4l8 8h-6a2 2 0 01-2-2V4z" fill="#33C481"/>
  <rect x="9" y="15" width="5" height="3" rx="0.5" fill="white" opacity="0.7"/>
  <rect x="15" y="15" width="5" height="3" rx="0.5" fill="white" opacity="0.5"/>
  <rect x="21" y="15" width="3" height="3" rx="0.5" fill="white" opacity="0.3"/>
  <rect x="9" y="19.5" width="5" height="3" rx="0.5" fill="white" opacity="0.5"/>
  <rect x="15" y="19.5" width="5" height="3" rx="0.5" fill="white" opacity="0.3"/>
  <rect x="21" y="19.5" width="3" height="3" rx="0.5" fill="white" opacity="0.2"/>
</svg>
